<svg width="31" height="36" viewBox="0 0 31 36" fill="none" xmlns="http://www.w3.org/2000/svg">
<path d="M12.3749 6.125C12.3749 5.2962 12.7042 4.50134 13.2902 3.91529C13.8763 3.32924 14.6711 3 15.4999 3C16.3287 3 17.1236 3.32924 17.7096 3.91529C18.2957 4.50134 18.6249 5.2962 18.6249 6.125C18.6249 6.9538 18.2957 7.74866 17.7096 8.33471C17.1236 8.92076 16.3287 9.25 15.4999 9.25C14.6711 9.25 13.8763 8.92076 13.2902 8.33471C12.7042 7.74866 12.3749 6.9538 12.3749 6.125ZM15.4999 0.500001C14.6515 0.500013 13.8142 0.691918 13.0505 1.06135C12.2868 1.43079 11.6165 1.96818 11.0899 2.6333C10.5633 3.29843 10.194 4.07405 10.0095 4.90212C9.82509 5.73019 9.83035 6.58925 10.0249 7.415L5.99491 5.79C5.01711 5.3962 3.92339 5.40429 2.95152 5.81251C1.97965 6.22073 1.20821 6.99608 0.804909 7.97C0.605284 8.4523 0.503233 8.96939 0.504653 9.49137C0.506074 10.0134 0.610939 10.5299 0.813187 11.0111C1.01543 11.4923 1.31105 11.9286 1.68296 12.2949C2.05486 12.6612 2.49567 12.9501 2.97991 13.145L7.99991 15.1725V21.1325L3.46741 29.6575C3.222 30.1188 3.06985 30.6239 3.01964 31.1439C2.96944 31.664 3.02215 32.1889 3.17479 32.6886C3.32743 33.1883 3.57699 33.653 3.90923 34.0562C4.24148 34.4595 4.64989 34.7933 5.11116 35.0388C6.04273 35.5344 7.13304 35.6396 8.14222 35.3314C9.1514 35.0231 9.99679 34.3266 10.4924 33.395L15.4999 23.975L20.5099 33.395C21.0052 34.3266 21.8503 35.0232 22.8592 35.3317C23.8682 35.6402 24.9583 35.5353 25.8899 35.04C26.8215 34.5447 27.5181 33.6996 27.8266 32.6907C28.1351 31.6817 28.0302 30.5916 27.5349 29.66L22.9999 21.13V15.1725L28.0199 13.145C28.5041 12.9501 28.945 12.6612 29.3169 12.2949C29.6888 11.9286 29.9844 11.4923 30.1866 11.0111C30.3889 10.5299 30.4937 10.0134 30.4952 9.49137C30.4966 8.96939 30.3945 8.4523 30.1949 7.97C29.7921 6.99563 29.0208 6.21971 28.0489 5.811C27.077 5.40229 25.983 5.39384 25.0049 5.7875L20.9774 7.415C21.172 6.58905 21.1772 5.72977 20.9927 4.90151C20.8081 4.07326 20.4385 3.29749 19.9116 2.63232C19.3847 1.96715 18.7142 1.42981 17.9501 1.06054C17.1861 0.691264 16.3485 0.499636 15.4999 0.500001ZM3.11741 8.9225C3.26867 8.55881 3.55693 8.26921 3.91991 8.11626C4.28289 7.9633 4.69147 7.95926 5.05741 8.105L13.6274 11.5675C14.8286 12.0527 16.1712 12.0527 17.3724 11.5675L25.9424 8.105C26.3083 7.95926 26.7169 7.9633 27.0799 8.11626C27.4429 8.26921 27.7311 8.55881 27.8824 8.9225C27.9565 9.09994 27.9945 9.29033 27.9943 9.48261C27.9941 9.67488 27.9556 9.8652 27.8812 10.0425C27.8068 10.2198 27.6978 10.3805 27.5607 10.5152C27.4235 10.65 27.261 10.7561 27.0824 10.8275L22.0624 12.8525C21.6 13.0396 21.2041 13.3607 20.9256 13.7746C20.6472 14.1885 20.4989 14.6762 20.4999 15.175V21.1325C20.4997 21.5422 20.6001 21.9457 20.7924 22.3075L25.3274 30.835C25.4914 31.179 25.5163 31.573 25.3971 31.935C25.2778 32.297 25.0235 32.5989 24.6871 32.7781C24.3507 32.9572 23.9582 32.9997 23.5913 32.8967C23.2244 32.7937 22.9114 32.5531 22.7174 32.225L17.7074 22.8C17.4945 22.3994 17.1765 22.0643 16.7876 21.8306C16.3987 21.5969 15.9536 21.4734 15.4999 21.4734C15.0462 21.4734 14.6011 21.5969 14.2122 21.8306C13.8233 22.0643 13.5054 22.3994 13.2924 22.8L8.28491 32.2175C8.1938 32.3889 8.06984 32.5406 7.92009 32.6641C7.77033 32.7876 7.59773 32.8803 7.41213 32.9371C7.22653 32.9938 7.03156 33.0135 6.83837 32.9949C6.64518 32.9763 6.45753 32.9199 6.28616 32.8288C6.11478 32.7376 5.96303 32.6137 5.83957 32.4639C5.7161 32.3142 5.62334 32.1416 5.56658 31.956C5.50982 31.7704 5.49017 31.5754 5.50876 31.3822C5.52735 31.189 5.58381 31.0014 5.67491 30.83L10.2074 22.305C10.3993 21.944 10.4998 21.5414 10.4999 21.1325V15.1725C10.4999 14.6745 10.3512 14.1879 10.0728 13.775C9.7944 13.3621 9.39905 13.0417 8.93741 12.855L3.91741 10.825C3.73887 10.7536 3.57629 10.6475 3.43916 10.5127C3.30202 10.378 3.19306 10.2173 3.11862 10.04C3.04417 9.8627 3.00572 9.67238 3.00552 9.48011C3.00531 9.28783 3.04334 9.09994 3.11741 8.9225Z" fill="#A729F5"/>
</svg>
